<?xml version="1.0" standalone="no"?>
<!DOCTYPE svg PUBLIC "-//W3C//DTD SVG 20010904//EN"
 "http://www.w3.org/TR/2001/REC-SVG-20010904/DTD/svg10.dtd">
<svg version="1.0" xmlns="http://www.w3.org/2000/svg"
 width="444.000000pt" height="444.000000pt" viewBox="0 0 444.000000 444.000000"
 preserveAspectRatio="xMidYMid meet">
<metadata>
Created by potrace 1.11, written by Peter Selinger 2001-2013
</metadata>
<g transform="translate(0.000000,444.000000) scale(0.100000,-0.100000)"
fill="#000000" stroke="none">
<path d="M1858 4090 c-4 -8 -9 -34 -12 -58 -8 -61 -21 -80 -64 -91 -59 -16
-142 -24 -142 -15 1 15 24 40 43 47 20 7 33 34 22 45 -4 4 -27 -15 -51 -42
-29 -31 -56 -51 -78 -56 -40 -9 -65 2 -49 22 14 18 22 67 12 74 -4 2 -13 -13
-19 -35 -11 -43 -9 -42 -148 -57 -75 -7 -137 -38 -252 -124 -87 -66 -174 -164
-211 -238 -13 -26 -34 -54 -45 -64 -12 -10 -25 -29 -28 -44 -5 -17 -12 -24
-24 -22 -9 2 -17 9 -17 16 0 13 -8 16 -28 9 -9 -3 -8 -9 4 -23 23 -27 29 -50
23 -83 -5 -23 -9 -27 -19 -18 -7 7 -11 17 -8 23 5 13 -25 40 -34 31 -3 -4 2
-18 11 -31 9 -14 16 -33 16 -42 0 -15 -2 -15 -21 2 -22 19 -22 19 -16 -10 10
-56 -64 -120 -146 -124 -22 -2 -64 7 -94 18 -31 11 -58 18 -61 16 -2 -3 8 -10
24 -16 16 -5 37 -15 46 -20 10 -6 24 -10 31 -10 7 0 22 -7 34 -15 25 -17 21
-51 -7 -58 -10 -3 -30 -30 -45 -61 -14 -31 -30 -56 -35 -56 -5 0 -16 -15 -26
-32 -85 -163 -137 -274 -155 -333 -12 -38 -34 -99 -49 -135 -16 -36 -32 -90
-36 -120 -4 -30 -15 -66 -24 -80 -9 -14 -27 -55 -39 -92 -13 -38 -27 -68 -32
-68 -5 0 -9 -15 -10 -32 -2 -121 0 -158 10 -175 6 -13 9 -78 6 -178 -4 -135
-2 -160 11 -170 13 -9 14 -20 5 -68 -8 -45 -7 -80 5 -155 23 -148 27 -202 16
-202 -5 0 -15 -14 -23 -31 -12 -30 -11 -33 14 -51 21 -15 27 -28 27 -58 0 -21
5 -40 10 -42 6 -2 12 -31 14 -65 2 -33 7 -67 11 -74 12 -19 37 -128 42 -187 6
-59 -3 -95 -16 -73 -6 10 -11 5 -16 -18 -3 -17 -11 -31 -16 -31 -10 0 -12 -33
-2 -43 3 -4 7 -26 7 -49 1 -41 3 -44 53 -69 33 -17 53 -22 56 -15 2 6 -4 52
-13 101 -24 125 -33 326 -31 695 1 255 4 326 17 372 9 32 14 67 11 79 -3 13 0
28 9 37 8 8 13 21 10 28 -3 8 1 14 11 14 12 0 13 3 4 14 -8 10 -8 16 3 25 15
13 31 58 27 79 -1 6 3 12 10 12 13 0 4 82 -12 113 -7 12 -6 22 6 33 8 8 15 27
15 40 0 14 7 38 15 54 9 18 12 40 9 59 -5 21 -3 31 6 31 8 0 10 8 7 21 -3 13
2 28 14 40 22 22 27 48 6 30 -18 -14 -16 15 3 49 8 14 13 31 12 38 -2 6 3 12
11 12 15 0 27 22 47 84 7 22 21 49 31 59 10 11 16 23 14 27 -3 4 6 24 20 44
13 20 22 43 19 51 -4 9 0 15 7 15 8 0 22 17 31 38 10 20 30 46 46 56 27 18 43
40 58 79 4 10 20 21 36 24 19 4 25 9 17 13 -8 5 -4 10 12 15 13 4 28 13 32 19
6 8 11 6 19 -5 10 -15 13 -14 29 2 15 15 22 16 43 6 14 -7 26 -15 26 -19 0 -4
8 -4 17 -1 13 5 15 2 10 -11 -5 -13 -3 -17 7 -13 8 3 16 1 18 -4 2 -6 16 -12
31 -12 15 -1 27 -6 27 -11 0 -5 3 -6 7 -3 3 4 15 -5 25 -20 10 -16 18 -22 18
-15 0 22 29 12 36 -12 6 -26 36 -45 42 -27 2 6 10 11 18 11 7 0 11 -6 8 -13
-5 -15 24 -19 41 -6 6 4 17 4 25 -1 23 -14 33 -12 26 6 -5 12 -2 15 10 10 9
-4 23 -1 30 5 11 9 15 7 20 -5 4 -10 13 -15 20 -12 8 3 14 1 14 -4 0 -6 5 -10
11 -10 6 0 9 7 6 15 -8 18 13 32 23 15 6 -9 10 -8 19 6 7 13 13 15 18 8 15
-21 49 -34 60 -23 8 8 20 4 42 -12 l31 -22 18 21 c20 23 42 29 42 12 0 -5 7
-10 15 -10 18 0 18 -4 4 -33 -8 -17 -5 -16 13 6 22 25 57 39 43 17 -3 -5 0
-10 8 -10 14 0 17 -26 5 -46 -4 -5 2 -15 12 -22 11 -7 21 -8 25 -2 9 15 31 1
44 -26 14 -31 37 -26 34 7 -2 14 0 18 4 9 3 -8 16 -23 27 -33 l21 -18 -22 6
c-19 5 -23 2 -23 -17 0 -13 4 -18 8 -12 4 6 18 7 32 4 l25 -7 -26 -11 c-15 -6
-29 -17 -32 -24 -2 -7 -8 4 -12 24 -4 21 -11 35 -16 32 -12 -7 -11 -44 1 -44
6 0 10 -11 10 -25 0 -27 10 -31 41 -15 13 7 19 7 19 0 0 -5 -4 -10 -10 -10 -5
0 -10 -4 -10 -10 0 -5 7 -10 15 -10 8 0 15 -6 15 -14 0 -8 5 -18 12 -22 8 -5
9 -2 5 9 -8 20 -3 21 25 6 20 -11 20 -12 4 -24 -9 -7 -27 -11 -39 -8 l-22 5
20 -19 c15 -13 19 -25 15 -43 l-6 -24 -16 22 c-13 20 -16 20 -22 7 -3 -9 -11
-13 -17 -9 -8 4 -9 3 -5 -4 4 -7 14 -12 23 -12 11 0 14 -6 10 -21 -8 -29 2
-49 24 -49 10 0 19 -4 19 -9 0 -5 11 -8 24 -8 18 0 25 6 30 28 4 19 11 29 23
28 12 0 13 -2 5 -6 -10 -4 -8 -8 5 -18 10 -8 14 -17 9 -22 -5 -4 -11 -2 -13 5
-3 6 -9 10 -13 7 -11 -7 9 -55 23 -55 5 0 7 7 3 15 -7 19 -1 19 18 -1 14 -14
15 -13 12 13 -2 15 -1 22 1 15 3 -8 11 -11 19 -8 8 3 14 1 14 -5 0 -6 4 -8 9
-5 5 3 7 15 4 25 -3 11 0 28 5 38 12 19 11 20 12 -56 0 -24 1 -24 14 -6 18 24
50 30 42 7 -5 -15 -4 -15 8 1 13 16 14 16 20 -5 9 -34 7 -50 -4 -43 -5 3 -10
3 -11 -2 0 -4 -2 -18 -3 -31 -3 -25 17 -47 34 -37 5 3 10 -1 10 -9 0 -10 6
-13 15 -10 22 9 18 19 -12 31 -22 9 -24 11 -8 12 11 0 28 -6 38 -13 10 -8 26
-13 35 -11 9 1 11 0 4 -2 -11 -4 -11 -8 -1 -21 11 -14 11 -15 0 -6 -14 13 -51
7 -51 -8 0 -5 5 -6 11 -2 7 4 9 0 5 -12 -3 -11 -1 -26 5 -34 9 -13 10 -12 5 3
-10 33 15 17 30 -19 18 -43 13 -51 -22 -35 -20 9 -25 9 -21 -1 2 -7 10 -12 16
-10 7 1 10 -17 9 -55 -2 -32 0 -62 2 -68 3 -5 1 -11 -5 -13 -14 -4 -24 65 -11
79 8 8 8 13 -2 16 -6 3 -10 9 -6 14 3 5 1 9 -4 9 -17 0 -22 -13 -10 -27 8 -11
7 -12 -6 -7 -9 3 -16 2 -16 -4 0 -6 5 -12 10 -14 6 -2 12 -16 14 -31 1 -15 6
-30 9 -34 4 -3 7 -16 7 -29 0 -14 8 -24 23 -28 18 -5 19 -8 7 -15 -8 -6 -17
-6 -20 -2 -3 4 -13 10 -22 14 -12 4 -15 2 -11 -9 3 -7 11 -14 19 -14 7 0 18
-8 24 -17 11 -17 11 -17 6 0 -3 9 -1 17 3 17 16 0 18 -24 4 -38 -10 -11 -11
-17 -2 -28 8 -10 8 -14 0 -14 -10 0 -15 14 -12 33 1 5 -3 6 -9 2 -5 -3 -10
-17 -10 -31 0 -14 4 -23 9 -20 12 8 22 -34 15 -64 -5 -20 -3 -22 5 -10 16 22
13 3 -3 -23 -8 -12 -16 -44 -19 -70 -5 -48 -4 -49 20 -44 l25 5 -28 -24 c-23
-18 -26 -25 -15 -33 10 -7 11 -9 1 -13 -20 -6 -22 -46 -4 -81 11 -21 13 -32 6
-35 -7 -2 -9 -16 -5 -34 5 -25 3 -30 -9 -26 -10 4 -14 0 -13 -13 1 -10 4 -22
8 -25 11 -11 8 -36 -3 -29 -5 3 -10 0 -10 -7 0 -9 -3 -9 -10 2 -9 13 -10 13
-11 0 -1 -8 -1 -21 0 -28 1 -8 -5 -22 -14 -32 -12 -14 -13 -20 -4 -26 9 -5 9
-10 -2 -18 -8 -6 -14 -20 -14 -31 0 -11 -6 -19 -12 -17 -7 1 -13 -3 -13 -9 0
-5 -4 -8 -9 -4 -6 3 -14 -3 -20 -12 -9 -16 -10 -16 -11 3 0 12 -7 25 -16 28
-23 9 -27 8 -20 -9 3 -8 1 -15 -4 -15 -13 0 -13 12 0 44 7 20 6 26 -5 26 -7 0
-17 -5 -21 -11 -4 -7 -12 1 -20 21 -8 18 -11 37 -7 43 4 6 1 7 -7 2 -10 -6
-12 -4 -7 9 5 12 3 15 -6 9 -6 -4 -16 -8 -22 -9 -5 0 -15 -2 -21 -2 -6 -1 -11
-9 -11 -17 0 -9 6 -14 12 -11 6 2 16 -4 23 -14 9 -14 8 -17 -6 -16 -9 0 -20 5
-23 10 -12 16 -30 -4 -20 -22 7 -12 3 -21 -12 -35 -16 -14 -18 -20 -9 -26 10
-6 10 -11 -3 -21 -22 -19 -19 -36 15 -68 16 -16 30 -35 30 -43 0 -11 2 -11 11
1 8 12 9 8 5 -16 -3 -17 -1 -35 4 -40 4 -5 11 -31 15 -59 4 -35 3 -46 -4 -35
-16 23 -20 9 -11 -38 9 -51 3 -82 -19 -99 -14 -11 -14 -12 1 -13 17 0 19 -15
5 -37 -5 -8 -4 -13 2 -13 6 0 11 -7 11 -16 0 -8 -4 -13 -8 -10 -5 3 -9 -10
-10 -29 -1 -19 3 -35 9 -35 6 0 7 -4 4 -10 -3 -5 0 -10 7 -10 10 0 9 -3 -1 -9
-14 -9 -22 -62 -22 -143 0 -16 -5 -28 -11 -28 -7 0 -7 -5 1 -14 9 -11 9 -16 0
-22 -9 -5 -7 -11 6 -21 11 -7 13 -13 7 -13 -18 0 -31 -42 -20 -62 8 -17 58
-18 821 -18 l812 0 17 32 c9 18 22 53 29 78 6 24 23 69 39 100 31 62 49 118
84 270 14 58 43 159 65 225 31 92 41 135 41 187 0 158 -46 238 -137 238 l-45
0 7 32 c3 18 18 70 31 116 15 49 23 94 20 110 -9 39 12 232 26 250 8 9 11 37
10 74 -2 33 1 65 6 71 11 13 9 216 -2 262 -4 17 -12 39 -16 50 -18 40 -42 141
-52 215 -5 41 -14 85 -20 97 -6 11 -7 27 -3 34 5 7 4 10 -3 5 -13 -8 -32 24
-42 71 -8 31 -7 33 18 26 21 -5 24 -3 19 11 -4 10 -7 21 -7 26 0 4 -8 10 -19
13 -16 4 -17 11 -11 50 4 26 4 50 0 54 -4 4 -13 24 -20 43 -8 19 -20 40 -26
45 -7 6 -16 23 -20 39 -6 26 -5 27 14 17 17 -9 22 -8 27 9 4 14 -2 30 -20 51
-17 21 -24 38 -19 51 4 14 2 18 -5 14 -6 -4 -11 0 -11 11 0 21 -36 56 -50 48
-4 -3 -6 3 -4 12 3 11 -8 32 -26 51 -16 18 -30 35 -30 38 0 2 21 4 48 4 33 0
58 -7 82 -24 51 -34 152 -87 158 -82 14 15 -91 93 -177 133 -41 19 -61 34 -61
45 0 11 8 18 20 18 11 0 20 -5 20 -12 0 -6 2 -9 5 -6 3 3 1 17 -4 31 -13 33
10 43 51 22 28 -13 29 -13 17 3 -21 28 -53 52 -69 51 -12 0 -11 -2 3 -13 30
-23 -4 -26 -35 -4 -32 22 -37 42 -9 33 16 -5 18 -2 14 15 -3 12 -15 26 -27 30
-21 9 -21 9 2 9 12 1 22 -3 22 -9 0 -5 7 -10 15 -10 24 0 89 -51 126 -99 18
-24 35 -38 37 -32 6 18 -37 79 -76 109 -21 15 -41 33 -45 39 -4 7 -17 13 -27
13 -10 0 -22 5 -25 10 -3 6 -17 10 -31 10 -28 0 -43 25 -25 43 6 6 11 17 11
24 0 22 -20 14 -32 -12 -14 -32 -44 -32 -82 0 -25 20 -28 26 -16 40 7 8 11 16
9 18 -5 2 -83 45 -151 82 -27 14 -48 32 -48 39 0 17 -27 30 -57 27 -23 -2 -31
13 -13 24 17 11 11 20 -23 36 -21 9 -45 12 -65 8 -33 -7 -52 4 -30 17 13 8 69
16 125 17 39 1 35 12 -7 21 -30 5 -30 7 -26 53 5 57 -1 71 -20 44 -11 -15 -22
-19 -42 -15 -15 3 -63 6 -107 7 l-79 2 2 68 c1 44 -2 66 -9 62 -5 -4 -7 -23
-4 -45 7 -44 -7 -60 -33 -37 -24 20 -96 28 -113 12 -8 -7 -29 -17 -47 -23 -28
-10 -36 -8 -52 8 -27 27 -25 32 12 28 18 -2 33 2 35 10 4 9 -12 12 -59 12 -35
0 -69 5 -74 10 -10 10 -41 15 -106 19 -9 1 -33 17 -53 37 -35 33 -41 36 -79
30 -129 -21 -155 -19 -124 12 34 34 -80 -4 -150 -50 -24 -15 -52 -28 -63 -28
-11 0 -17 -4 -14 -10 9 -15 -21 -12 -33 3 -6 7 -12 33 -14 57 -2 26 -7 39 -10
30z m882 -174 c0 -3 -4 -8 -10 -11 -5 -3 -10 -1 -10 4 0 6 5 11 10 11 6 0 10
-2 10 -4z m80 -11 c17 -20 -1 -41 -41 -50 -41 -9 -45 -2 -19 34 24 34 41 39
60 16z m-1420 -20 c-7 -8 -19 -15 -27 -15 -8 0 -22 -9 -31 -19 -10 -11 -39
-32 -67 -47 -27 -14 -59 -35 -71 -45 -24 -22 -34 -24 -34 -6 0 37 169 145 229
147 11 0 11 -3 1 -15z m1327 1 c8 -7 -70 -47 -83 -42 -19 7 -18 36 1 36 8 0
15 4 15 9 0 8 59 6 67 -3z m294 -36 c12 0 19 -7 19 -20 0 -15 -7 -20 -28 -20
-16 0 -37 -6 -47 -14 -11 -8 -25 -12 -32 -9 -7 3 -28 -6 -46 -19 -26 -20 -97
-43 -97 -32 0 2 13 18 30 36 16 18 36 41 45 51 18 21 48 22 68 3 12 -13 16
-11 26 11 8 16 17 23 27 19 9 -3 24 -6 35 -6z m-79 -132 c-6 -6 -15 -8 -19 -4
-4 4 -1 11 7 16 19 12 27 3 12 -12z m568 -427 c0 -12 -20 -25 -27 -18 -7 7 6
27 18 27 5 0 9 -4 9 -9z m-1670 -635 c0 -3 -4 -8 -10 -11 -5 -3 -10 -1 -10 4
0 6 5 11 10 11 6 0 10 -2 10 -4z m190 -220 c0 -19 -39 -31 -53 -17 -8 8 -5 11
10 11 12 0 25 5 28 10 9 14 15 12 15 -4z m47 -83 c5 3 10 0 10 -8 0 -8 -4 -12
-9 -9 -4 3 -5 -1 -2 -9 5 -14 -24 -33 -34 -22 -3 3 0 5 6 5 7 0 12 9 12 20 0
11 -5 20 -11 20 -5 0 -7 5 -3 11 5 8 9 8 14 -1 4 -7 12 -10 17 -7z m-59 -15
c7 -7 12 -19 11 -27 0 -10 -4 -7 -10 7 -5 13 -13 20 -19 17 -5 -3 -10 -1 -10
4 0 14 13 14 28 -1z m227 -8 c-3 -5 -10 -10 -16 -10 -5 0 -9 5 -9 10 0 6 7 10
16 10 8 0 12 -4 9 -10z m-70 -10 c3 -5 1 -10 -4 -10 -6 0 -11 5 -11 10 0 6 2
10 4 10 3 0 8 -4 11 -10z m-172 -32 c-11 -19 -15 -50 -5 -44 5 3 9 -1 9 -9 0
-8 -6 -15 -14 -15 -7 0 -13 7 -13 16 0 14 -3 14 -15 4 -12 -10 -15 -9 -15 6 0
11 12 27 28 36 33 21 35 22 25 6z m106 -32 c0 -15 -2 -16 -6 -6 -4 8 -13 20
-22 27 -14 10 -13 11 7 6 14 -3 22 -13 21 -27z m121 -2 c0 -8 -4 -12 -10 -9
-5 3 -10 13 -10 21 0 8 5 12 10 9 6 -3 10 -13 10 -21z m175 -118 c12 -12 11
-15 -10 -19 -19 -3 -23 -1 -15 8 5 6 7 15 3 18 -3 4 -3 7 1 7 4 0 14 -6 21
-14z m60 -136 c3 -5 1 -10 -4 -10 -6 0 -11 5 -11 10 0 6 2 10 4 10 3 0 8 -4
11 -10z m-95 -122 c-13 -13 -19 -16 -15 -8 14 25 28 41 32 36 3 -3 -5 -15 -17
-28z m33 -89 c-4 -15 -8 -17 -14 -8 -6 11 4 28 18 29 0 0 -1 -9 -4 -21z m114
-241 c-3 -8 -6 -5 -6 6 -1 11 2 17 5 13 3 -3 4 -12 1 -19z m-137 -38 c0 -5 -7
-7 -15 -4 -8 4 -15 8 -15 10 0 2 7 4 15 4 8 0 15 -4 15 -10z m80 -60 c0 -5 -4
-10 -10 -10 -5 0 -10 5 -10 10 0 6 5 10 10 10 6 0 10 -4 10 -10z m-15 -40 c-3
-5 1 -10 9 -10 9 0 16 8 16 17 0 12 3 14 11 6 13 -13 4 -33 -17 -33 -8 0 -14
-4 -14 -10 0 -21 -20 -9 -21 13 -1 18 -2 18 -6 4 -5 -18 -5 -18 -18 0 -11 15
-11 21 2 35 13 15 17 15 30 3 8 -8 11 -19 8 -25z m-53 -32 c-6 -6 -15 -8 -19
-4 -4 4 -1 11 7 16 19 12 27 3 12 -12z m98 -18 c0 -5 -7 -7 -15 -4 -8 4 -15 8
-15 10 0 2 7 4 15 4 8 0 15 -4 15 -10z m-104 -40 c9 0 13 -8 10 -22 -1 -13 -6
-22 -9 -20 -4 1 -13 2 -19 3 -10 0 -10 2 0 6 16 6 15 23 -2 23 -10 0 -12 7 -8
23 5 18 7 19 10 5 2 -10 10 -18 18 -18z m115 3 c13 -15 12 -15 -11 -3 -34 17
-36 20 -18 20 9 0 22 -7 29 -17z m-31 -13 c0 -5 -4 -10 -10 -10 -5 0 -10 5
-10 10 0 6 5 10 10 10 6 0 10 -4 10 -10z m90 -10 c0 -5 -5 -10 -11 -10 -5 0
-7 5 -4 10 3 6 8 10 11 10 2 0 4 -4 4 -10z m-225 -10 c3 -5 1 -10 -4 -10 -6 0
-11 5 -11 10 0 6 2 10 4 10 3 0 8 -4 11 -10z m15 -35 c0 -8 -2 -15 -4 -15 -2
0 -6 7 -10 15 -3 8 -1 15 4 15 6 0 10 -7 10 -15z m59 -28 c0 -9 -2 -8 -6 1 -2
6 -10 9 -15 6 -7 -4 -8 -2 -4 5 9 13 26 5 25 -12z m51 -3 c0 -2 -7 -4 -15 -4
-8 0 -15 4 -15 10 0 5 7 7 15 4 8 -4 15 -8 15 -10z m-63 -36 c-3 -8 -6 -5 -6
6 -1 11 2 17 5 13 3 -3 4 -12 1 -19z m-50 -20 c-3 -8 -6 -5 -6 6 -1 11 2 17 5
13 3 -3 4 -12 1 -19z m88 -8 c-3 -5 -12 -10 -18 -10 -7 0 -6 4 3 10 19 12 23
12 15 0z m-291 -258 c3 -5 -1 -9 -9 -9 -8 0 -15 4 -15 9 0 4 4 8 9 8 6 0 12
-4 15 -8z m476 -147 c0 -8 -4 -15 -9 -15 -13 0 -22 16 -14 24 11 11 23 6 23
-9z m50 -34 c0 -6 -4 -13 -10 -16 -5 -3 -10 -31 -10 -61 0 -49 4 -61 35 -99
57 -69 33 -67 -135 15 -24 11 -24 47 -1 55 12 3 24 18 27 33 10 42 94 107 94
73z m74 -57 c18 -7 21 -39 5 -49 -12 -8 -49 23 -49 42 0 14 18 17 44 7z m-229
-75 c11 -16 1 -19 -13 -3 -7 8 -8 14 -3 14 5 0 13 -5 16 -11z m-478 -321 c2
-17 0 -19 -7 -8 -5 8 -6 18 -4 22 8 12 10 10 11 -14z"/>
<path d="M3615 3406 c13 -9 25 -11 37 -5 9 5 24 6 32 3 9 -3 16 -1 16 5 0 7
-21 11 -52 11 -47 0 -50 -1 -33 -14z"/>
<path d="M591 3384 c0 -11 3 -14 6 -6 3 7 2 16 -1 19 -3 4 -6 -2 -5 -13z"/>
<path d="M395 3028 c-36 -14 -64 -38 -43 -38 8 0 18 4 24 9 5 5 20 11 33 13
14 1 26 9 29 16 4 14 -3 14 -43 0z"/>
<path d="M1541 2664 c0 -11 3 -14 6 -6 3 7 2 16 -1 19 -3 4 -6 -2 -5 -13z"/>
<path d="M1701 2581 c-14 -9 -9 -41 7 -41 15 0 34 28 27 40 -8 12 -16 13 -34
1z"/>
<path d="M4297 2546 c4 -18 3 -19 -7 -6 -10 13 -11 12 -6 -3 3 -10 6 -21 6
-23 0 -13 31 -1 40 15 15 30 12 39 -14 39 -19 0 -23 -5 -19 -22z"/>
<path d="M1750 2540 c0 -5 7 -10 15 -10 8 0 15 5 15 10 0 6 -7 10 -15 10 -8 0
-15 -4 -15 -10z"/>
<path d="M1708 2513 c7 -3 16 -2 19 1 4 3 -2 6 -13 5 -11 0 -14 -3 -6 -6z"/>
<path d="M1787 2483 c-3 -5 7 -14 24 -20 23 -9 29 -9 29 3 0 8 -4 14 -9 14 -5
0 -16 3 -24 6 -8 3 -17 1 -20 -3z"/>
<path d="M1721 2464 c0 -11 3 -14 6 -6 3 7 2 16 -1 19 -3 4 -6 -2 -5 -13z"/>
<path d="M1890 2215 c0 -8 5 -15 10 -15 6 0 10 7 10 15 0 8 -4 15 -10 15 -5 0
-10 -7 -10 -15z"/>
<path d="M1900 2190 c-8 -5 -12 -11 -9 -14 7 -8 49 5 49 15 0 12 -21 11 -40
-1z"/>
<path d="M2186 2174 c-3 -8 1 -27 9 -42 l14 -27 1 28 c0 15 -4 27 -10 27 -5 0
-7 7 -4 15 4 8 4 15 1 15 -3 0 -8 -7 -11 -16z"/>
<path d="M2014 2129 c-9 -15 -2 -18 20 -9 17 6 18 7 3 13 -9 3 -19 2 -23 -4z"/>
<path d="M2167 2104 c6 -15 23 -19 23 -5 0 5 -7 11 -14 14 -10 4 -13 1 -9 -9z"/>
<path d="M2250 2055 c0 -5 5 -17 10 -25 5 -8 10 -10 10 -5 0 6 -5 17 -10 25
-5 8 -10 11 -10 5z"/>
<path d="M2230 2004 c0 -8 5 -12 10 -9 6 3 10 10 10 16 0 5 -4 9 -10 9 -5 0
-10 -7 -10 -16z"/>
<path d="M2260 2000 c0 -5 5 -10 11 -10 5 0 7 5 4 10 -3 6 -8 10 -11 10 -2 0
-4 -4 -4 -10z"/>
<path d="M2247 1816 c-4 -11 -3 -24 3 -30 14 -14 13 -29 -2 -20 -7 4 -9 3 -5
-1 14 -16 57 -17 57 -2 0 16 -29 45 -31 31 -1 -5 -4 2 -8 16 -6 23 -8 23 -14
6z m38 -36 c3 -5 1 -10 -4 -10 -6 0 -11 5 -11 10 0 6 2 10 4 10 3 0 8 -4 11
-10z"/>
<path d="M2321 1583 c-1 -6 -4 -20 -7 -30 -5 -17 -5 -17 6 0 6 10 9 23 6 30
-3 9 -5 9 -5 0z"/>
<path d="M2263 1315 c-3 -9 -3 -19 1 -22 3 -4 6 1 6 10 0 8 6 18 13 20 9 4 9
6 -1 6 -7 1 -15 -6 -19 -14z"/>
<path d="M744 1231 c-15 -13 -101 -33 -149 -35 -51 -3 -67 -14 -71 -51 -1 -14
-13 -34 -26 -45 -18 -15 -20 -19 -8 -23 8 -2 31 -9 50 -15 49 -16 175 -4 159
14 -6 8 -15 12 -19 9 -5 -3 -11 -1 -15 5 -9 15 24 25 38 11 13 -13 31 -15 23
-2 -8 12 92 20 119 10 13 -5 -3 -8 -42 -8 -67 -1 -89 -18 -25 -19 39 -1 60 -7
153 -41 30 -11 91 -23 135 -26 153 -12 205 -21 293 -47 36 -11 88 -22 115 -25
44 -4 48 -3 34 10 -25 25 -44 80 -30 85 7 2 12 11 12 20 0 8 -3 13 -6 9 -8 -8
-44 25 -44 40 0 7 -6 13 -12 13 -10 0 -9 3 1 9 11 7 9 11 -8 20 -11 7 -21 8
-21 4 0 -4 -7 0 -14 10 -13 16 -14 16 -19 -5 -4 -14 0 -26 11 -34 16 -13 16
-13 0 -14 -10 0 -22 9 -29 21 -7 14 -17 19 -31 16 -14 -4 -18 -1 -14 8 2 7 -3
19 -12 27 -11 9 -14 10 -8 1 9 -16 1 -16 -23 -1 -11 6 -26 8 -37 3 -44 -19
-174 -2 -174 22 0 10 -6 12 -22 7 -13 -4 -47 -8 -75 -9 -43 -1 -54 2 -58 17
-5 15 -17 17 -74 17 -38 -1 -73 -4 -77 -8z m139 -38 c-7 -2 -21 -2 -30 0 -10
3 -4 5 12 5 17 0 24 -2 18 -5z m-233 -9 c0 -17 -28 -29 -55 -24 l-30 6 30 11
c34 13 55 16 55 7z m634 -50 c3 -8 2 -12 -4 -9 -6 3 -10 10 -10 16 0 14 7 11
14 -7z m-647 -10 c-3 -3 -12 -4 -19 -1 -8 3 -5 6 6 6 11 1 17 -2 13 -5z m-122
-34 c3 -5 1 -10 -4 -10 -6 0 -11 5 -11 10 0 6 2 10 4 10 3 0 8 -4 11 -10z
m125 0 c0 -5 -15 -10 -32 -9 -28 0 -30 2 -13 9 28 12 45 12 45 0z"/>
<path d="M2020 1230 c0 -5 5 -10 11 -10 5 0 7 5 4 10 -3 6 -8 10 -11 10 -2 0
-4 -4 -4 -10z"/>
<path d="M2026 1168 c8 -28 26 -40 38 -28 4 4 15 6 24 3 10 -4 13 -2 8 5 -4 7
-17 10 -32 6 -14 -4 -24 -2 -24 5 0 6 6 11 13 11 8 0 7 4 -3 10 -24 16 -32 12
-24 -12z"/>
<path d="M2050 1107 c-8 -7 -16 -18 -18 -26 -3 -12 0 -12 12 -2 8 7 20 10 25
7 15 -10 22 10 8 22 -8 7 -17 7 -27 -1z"/>
<path d="M1492 1021 c4 -13 18 -16 19 -4 0 4 -5 9 -11 12 -7 2 -11 -2 -8 -8z"/>
<path d="M51 979 c-6 -17 -13 -72 -17 -123 -5 -84 -3 -98 25 -183 17 -51 31
-100 32 -110 1 -28 29 78 29 112 0 17 -5 36 -10 41 -17 17 -26 220 -11 238 17
20 4 56 -19 56 -11 0 -22 -12 -29 -31z"/>
<path d="M2205 1000 c3 -5 8 -10 11 -10 2 0 4 5 4 10 0 6 -5 10 -11 10 -5 0
-7 -4 -4 -10z"/>
<path d="M973 926 c-53 -12 -57 -32 -6 -30 21 1 43 -4 52 -13 10 -11 16 -12
19 -4 3 9 7 9 18 0 20 -17 17 -32 -6 -26 -10 3 -20 1 -22 -4 -2 -5 -23 -11
-48 -13 -79 -7 -162 -25 -186 -41 -58 -37 -74 3 -22 54 35 34 32 39 -10 17
-37 -19 -68 -56 -76 -88 -5 -21 -3 -28 9 -28 8 0 15 -4 15 -10 0 -5 -4 -10
-10 -10 -5 0 -10 -4 -10 -10 0 -15 27 -12 44 5 8 8 24 15 36 15 11 0 33 9 48
19 33 24 212 68 212 52 0 -3 -12 -19 -26 -36 -46 -53 -61 -106 -42 -145 33
-66 68 -98 121 -111 28 -8 60 -13 70 -12 9 2 17 -2 17 -7 0 -6 5 -10 11 -10 5
0 7 5 4 10 -3 6 4 10 17 10 19 0 20 2 8 10 -13 9 -13 12 2 21 26 15 68 92 68
123 0 15 -5 36 -10 46 -6 11 -6 21 -1 24 12 8 41 -21 41 -40 0 -8 5 -14 10
-14 6 0 10 -7 10 -16 0 -10 6 -14 15 -11 8 4 17 2 20 -4 4 -5 1 -8 -7 -7 -12
3 -15 -10 -7 -42 3 -9 -4 -16 -16 -16 -11 -1 -26 -2 -32 -3 -7 -1 -13 -6 -13
-11 0 -6 -11 -22 -25 -36 -28 -28 -32 -39 -11 -31 8 3 17 3 21 -1 4 -4 12 -7
17 -7 6 0 13 -6 16 -14 3 -9 0 -11 -9 -6 -18 11 -69 14 -69 3 0 -4 -6 -8 -13
-8 -7 0 -22 -7 -33 -16 -18 -14 -18 -15 4 -4 12 6 27 8 32 5 6 -3 10 0 10 7 0
9 3 9 10 -2 14 -22 12 -30 -5 -24 -8 4 -22 0 -31 -7 -14 -12 -14 -14 2 -26 24
-18 34 -16 35 5 0 9 3 12 5 5 3 -7 12 -9 20 -6 8 3 14 1 14 -4 0 -5 10 -9 23
-7 12 1 25 3 30 3 4 1 7 8 7 17 0 14 2 14 16 3 13 -11 15 -11 14 2 -4 25 0 35
20 59 11 13 20 29 20 37 0 7 11 13 24 13 14 0 28 5 31 10 5 8 11 7 21 -1 19
-16 36 28 20 53 -15 25 -33 22 -40 -7 -5 -18 -13 -25 -31 -25 -30 0 -32 15 -4
30 15 9 18 15 9 25 -8 9 -8 15 0 20 7 4 3 16 -10 35 -11 15 -20 34 -20 42 0
11 2 11 9 -1 5 -7 14 -10 21 -6 7 4 31 -13 61 -44 54 -55 75 -64 65 -28 -3 12
-6 28 -6 35 0 7 -4 11 -9 7 -5 -3 -33 27 -62 67 -59 83 -109 126 -189 164 -48
22 -70 26 -170 28 -63 1 -134 -2 -157 -8z m142 -76 c3 -5 -1 -10 -9 -10 -9 0
-16 5 -16 10 0 6 4 10 9 10 6 0 13 -4 16 -10z m100 -28 c-8 -8 -76 9 -70 18 3
4 21 3 40 -3 19 -6 33 -12 30 -15z m181 -99 c-10 -10 -19 5 -10 18 6 11 8 11
12 0 2 -7 1 -15 -2 -18z m-26 -3 c0 -5 -2 -10 -4 -10 -3 0 -8 5 -11 10 -3 6
-1 10 4 10 6 0 11 -4 11 -10z m-312 -32 c27 -27 4 -65 -23 -39 -6 5 -21 11
-35 13 -14 2 -26 11 -28 21 -3 14 4 17 35 17 22 0 44 -5 51 -12z m247 -168 c3
-5 -3 -10 -14 -10 -12 0 -21 5 -21 10 0 6 6 10 14 10 8 0 18 -4 21 -10z"/>
<path d="M872 905 c-13 -7 -19 -16 -14 -19 6 -3 13 -2 17 4 3 5 15 10 26 10
10 0 19 5 19 10 0 13 -19 11 -48 -5z"/>
<path d="M2005 710 c3 -5 8 -10 11 -10 2 0 4 5 4 10 0 6 -5 10 -11 10 -5 0 -7
-4 -4 -10z"/>
</g>
</svg>
